<svg xmlns="http://www.w3.org/2000/svg" width="24" height="24" viewBox="0 0 24 24" fill="currentColor"><path d="M20 3.9A10 10 0 0 0 3.3 18.1L2 22l4-1.3A10 10 0 1 0 20 3.9zM12 4a8 8 0 0 1 0 16h-.1a8 8 0 0 1-4.2-1.2l-.3-.2-2.5.8.8-2.4-.2-.3A8 8 0 0 1 12 4zm4.5 9.7c-.2-.1-1.3-.6-1.5-.7-.2-.1-.3-.1-.5.1-.1.2-.6.7-.7.8-.1.1-.2.1-.4 0-.2-.1-.9-.3-1.7-1-.6-.5-1-1.2-1.1-1.4-.1-.2 0-.3.1-.4l.3-.3c.1-.1.1-.2.2-.3.1-.1.1-.2 0-.4-.1-.2-.5-1.2-.7-1.6-.2-.4-.4-.3-.5-.3h-.4c-.1 0-.4.1-.6.3-.2.2-.8.8-.8 1.9s.8 2.1.9 2.2c.1.1 1.6 2.5 3.9 3.4.5.2.9.3 1.2.4.5.2 1 .2 1.3.1.4-.1 1.3-.5 1.5-1 .2-.5.2-.9.1-1 0-.2-.1-.2-.3-.3z"/></svg>